PathFileType	4	(X/Y/Z)	OpenSim_Sub09_CSBaseline_Magnet.trc
DataRate	CameraRate	NumFrames	NumMarkers	Units	OrigDataRate	OrigDataStartFrame	OrigNumFrames
100	100	26	8	m	100	2191	5840
Frame#	Time	torso_imu_offset_imu	pelvis_imu_offset_imu	tibia_r_imu_offset_imu	femur_r_imu_offset_imu	tibia_l_imu_offset_imu	femur_l_imu_offset_imu	toes_r_imu_offset_imu	toes_l_imu_offset_imu
				X1	Y1	Z1	X2	Y2	Z2	X3	Y3	Z3	X4	Y4	Z4	X5	Y5	Z5	X6	Y6	Z6	X7	Y7	Z7	X8		Y8	Z8	

2191	21.90000000	-0.91993577	-0.18548587	0.01685373	-0.67411891	0.29675401	-0.56581992	-0.67469258	-0.45989697	-0.12486303	-0.82216315	-0.21983381	0.03258269	-0.34054269	0.72643516	0.18978991	-0.65058585	0.18330459	0.17650494	-0.67407606	-0.06354886	-0.42979030	-0.80724556	0.00328411	-0.17105289
2192	21.91000000	-0.91876157	-0.18502903	0.01794350	-0.67975118	0.29108977	-0.56681440	-0.67379036	-0.46838038	-0.11056842	-0.82257228	-0.21836227	0.04465064	-0.32130163	0.72837645	0.18421146	-0.66101571	0.17723552	0.16515450	-0.67346519	-0.06831649	-0.42082049	-0.81148989	0.02953434	-0.13411489
2193	21.92000000	-0.92030446	-0.17636325	0.01833762	-0.67820133	0.28582375	-0.56212316	-0.66312773	-0.47544389	-0.09347443	-0.82146478	-0.22383955	0.04928205	-0.29902182	0.73737547	0.18066487	-0.66466576	0.17033213	0.15868991	-0.67630070	-0.07744184	-0.41604915	-0.81406229	0.05117169	-0.09421174
2194	21.93000000	-0.92113983	-0.17797708	0.00848306	-0.67743476	0.28555314	-0.56994274	-0.66379676	-0.47899565	-0.08671265	-0.81393634	-0.22971597	0.04811299	-0.28087217	0.75166309	0.16420631	-0.66780023	0.16448087	0.14383649	-0.67670575	-0.07793643	-0.41169779	-0.80995353	0.07152254	-0.04956048
2195	21.94000000	-0.91833160	-0.18363344	0.01415433	-0.67843291	0.28127412	-0.56974443	-0.65684931	-0.49063832	-0.08376098	-0.82153742	-0.24147737	0.06210004	-0.26360557	0.75722522	0.16290573	-0.67384136	0.15086606	0.13819501	-0.68198179	-0.08521015	-0.41093758	-0.81286857	0.09755328	-0.00954414
2196	21.95000000	-0.92214619	-0.18187002	0.00917741	-0.68529087	0.27003198	-0.56841625	-0.65269103	-0.49797152	-0.06773422	-0.81173857	-0.25073340	0.07452963	-0.24355868	0.76355611	0.16021043	-0.67981866	0.13479199	0.14199796	-0.68359758	-0.08709808	-0.40820956	-0.80699633	0.12210927	0.02236481
2197	21.96000000	-0.92054673	-0.18356587	0.01032168	-0.68001860	0.26728121	-0.56759932	-0.65089405	-0.50754199	-0.06855077	-0.80673413	-0.25977657	0.07359687	-0.22589242	0.76742236	0.15090745	-0.68759777	0.12315148	0.13093865	-0.68120914	-0.08635112	-0.39947785	-0.79831498	0.14565786	0.05628939
2198	21.97000000	-0.92408761	-0.18204351	0.00491906	-0.68372216	0.26061885	-0.57596978	-0.64653975	-0.51564188	-0.06993712	-0.80318364	-0.27470195	0.07528679	-0.20586792	0.78034579	0.14315399	-0.69668957	0.11125909	0.12131240	-0.68280572	-0.08964224	-0.39868346	-0.79066216	0.17253119	0.09966599
2199	21.98000000	-0.92333596	-0.18183220	0.00360310	-0.68781014	0.26472482	-0.57636023	-0.64396592	-0.51362107	-0.06956333	-0.79926619	-0.28004448	0.07981096	-0.19308086	0.78422889	0.13543322	-0.70087981	0.09182572	0.12568001	-0.68276078	-0.09492872	-0.39435738	-0.78036298	0.18939751	0.12764903
2200	21.99000000	-0.92092084	-0.17936589	0.00044551	-0.68704315	0.25238529	-0.57205769	-0.64250333	-0.52189898	-0.07029143	-0.78988567	-0.29034250	0.08720518	-0.18245162	0.79027065	0.13299097	-0.70669296	0.07947348	0.12277541	-0.68484269	-0.08918892	-0.39993248	-0.77150936	0.20788335	0.14989488
2201	22	-0.92125011	-0.18335787	-0.00329019	-0.68936522	0.24919700	-0.57856188	-0.63396451	-0.52959599	-0.08076637	-0.79257684	-0.30445271	0.09049790	-0.17135329	0.79099818	0.12362590	-0.71154992	0.06688945	0.12162436	-0.68347858	-0.09254836	-0.39668866	-0.76382159	0.22832275	0.16920751
2202	22.01000000	-0.93090840	-0.18063432	0.00433907	-0.68630109	0.24835502	-0.57689342	-0.63396585	-0.53405085	-0.08415049	-0.78665872	-0.30697849	0.09380371	-0.15920433	0.79661899	0.12561217	-0.71275974	0.05619953	0.12184325	-0.68318501	-0.08710814	-0.40044142	-0.75440279	0.24332284	0.17894072
2203	22.02000000	-0.92412569	-0.17926927	0.00654285	-0.69673040	0.24435530	-0.58289494	-0.63445432	-0.53621111	-0.09047718	-0.77848659	-0.31774671	0.08901529	-0.14024353	0.79853001	0.10778240	-0.72045585	0.03893816	0.12313178	-0.68130214	-0.09353058	-0.39352670	-0.75495020	0.24871610	0.17234358
2204	22.03000000	-0.92631432	-0.18044980	0.00345029	-0.69051457	0.23851299	-0.57983770	-0.63532921	-0.54064315	-0.08929413	-0.77756314	-0.32692466	0.09931903	-0.13793337	0.79736845	0.10088725	-0.72380221	0.02904761	0.11447099	-0.68079810	-0.09245078	-0.39364215	-0.75923449	0.25254002	0.15955445
2205	22.04000000	-0.92362591	-0.17268449	0.00749646	-0.69201665	0.23155706	-0.58028756	-0.62597987	-0.54022141	-0.09078158	-0.77600708	-0.33723817	0.09809183	-0.13254992	0.80394535	0.08501485	-0.72507798	0.01688651	0.11643572	-0.68084610	-0.10181952	-0.39270158	-0.76642564	0.24414724	0.14005772
2206	22.05000000	-0.92763032	-0.16910554	0.00400719	-0.69298260	0.22827924	-0.58276058	-0.62152811	-0.54878359	-0.08898961	-0.77132286	-0.34191073	0.09808529	-0.13335910	0.80261999	0.07133451	-0.72859891	0.00540033	0.12184870	-0.67921733	-0.09785122	-0.38976947	-0.76303459	0.24706218	0.12481856
2207	22.06000000	-0.93285213	-0.16850202	0.00563844	-0.69453652	0.21544714	-0.58542077	-0.62176806	-0.54314737	-0.09038968	-0.77164369	-0.35144653	0.10538065	-0.13205483	0.80770736	0.04819930	-0.73498237	-0.00519484	0.12483130	-0.67775550	-0.10176183	-0.39192593	-0.76683046	0.24103929	0.11372732
2208	22.07000000	-0.92151056	-0.17474743	0.01602216	-0.69244122	0.21797321	-0.58231599	-0.62170955	-0.55356471	-0.09144588	-0.76156346	-0.35860207	0.10927679	-0.13624794	0.81200048	0.02843448	-0.73595229	-0.01684823	0.12475447	-0.68424372	-0.10291278	-0.38716530	-0.77503083	0.23296687	0.10061202
2209	22.08000000	-0.93028253	-0.17073783	0.01095578	-0.69789960	0.20988334	-0.59284110	-0.61925142	-0.55182324	-0.08471971	-0.76146872	-0.36450092	0.10707850	-0.15010220	0.80625575	0.01104917	-0.73502651	-0.02318215	0.13055463	-0.68109054	-0.10782547	-0.38312561	-0.77285838	0.22933902	0.08732115
2210	22.09000000	-0.92473509	-0.16553789	0.01257672	-0.69683163	0.20580744	-0.58900431	-0.62292646	-0.55910930	-0.08694125	-0.75884744	-0.37053187	0.11003537	-0.15308013	0.80265663	-0.00170231	-0.73847128	-0.03568218	0.13405809	-0.68347552	-0.11129499	-0.38751957	-0.77971314	0.22046513	0.07067810
2211	22.10000000	-0.92812624	-0.16129200	0.01838996	-0.69979205	0.20086260	-0.58593921	-0.61989832	-0.56774185	-0.09142953	-0.75364832	-0.38017754	0.10185020	-0.16616934	0.80444524	-0.00667485	-0.74098244	-0.04458879	0.13478773	-0.68539092	-0.11216998	-0.38266243	-0.78396223	0.21923812	0.04779599
2212	22.11000000	-0.93013738	-0.16027086	0.01437074	-0.70092300	0.19376378	-0.59144549	-0.61718925	-0.56658919	-0.09744586	-0.74982736	-0.38942851	0.10625065	-0.18271613	0.80430123	-0.01043098	-0.74238083	-0.05988087	0.13348167	-0.67909792	-0.12049079	-0.37957542	-0.78482434	0.21483102	0.03335141
2213	22.12000000	-0.92940147	-0.16265262	0.01732919	-0.69953424	0.19309934	-0.58502072	-0.61319274	-0.56510232	-0.10645617	-0.74140340	-0.39475674	0.11091171	-0.19724632	0.79173197	0.00076037	-0.74508643	-0.06322081	0.14415989	-0.67837070	-0.11802529	-0.37673210	-0.79310200	0.20397373	0.01459050
2214	22.13000000	-0.93150962	-0.16130212	0.01984945	-0.70782613	0.18940465	-0.58937430	-0.61229802	-0.57177728	-0.11345671	-0.73784509	-0.40882575	0.10745837	-0.21673388	0.78743345	0.00191824	-0.74179514	-0.07637523	0.14187803	-0.67468276	-0.11854312	-0.38314891	-0.79454500	0.19497072	-0.00580238
2215	22.14000000	-0.93225130	-0.15760970	0.02466698	-0.70420669	0.18768166	-0.59352617	-0.61089420	-0.56944218	-0.11708951	-0.73561319	-0.41326987	0.10490193	-0.23605294	0.78413221	0.01646757	-0.74992059	-0.08391789	0.13218116	-0.67540351	-0.12047838	-0.37471769	-0.79302797	0.18439785	-0.02720083
2216	22.15000000	-0.93082590	-0.15206425	0.01884144	-0.69920370	0.18058764	-0.59321625	-0.60931667	-0.58093204	-0.11538314	-0.73557736	-0.41634066	0.10253600	-0.26274295	0.77575018	0.01825894	-0.74592947	-0.08595826	0.15940811	-0.67755895	-0.12806217	-0.37363804	-0.79909405	0.17442572	-0.05407235
